<svg width="32" height="32" viewBox="0 0 32 32" fill="none" xmlns="http://www.w3.org/2000/svg">
<rect x="0.685714" y="0.685714" width="30.6286" height="30.6286" rx="5.31429" stroke="#232323" stroke-width="1.37143"/>
<path d="M23.7333 12.2669C24.112 12.2669 24.419 11.9599 24.419 11.5812C24.419 11.2024 24.112 10.8954 23.7333 10.8954V12.2669ZM10.2436 8.7064L9.7609 8.21937H9.7609L10.2436 8.7064ZM12.2844 7.64914C12.5534 7.38255 12.5554 6.94838 12.2888 6.6794C12.0222 6.41042 11.588 6.40849 11.319 6.67508L12.2844 7.64914ZM21.9775 23.294L22.4602 23.781L21.9775 23.294ZM19.9367 24.3513C19.6677 24.6179 19.6657 25.052 19.9323 25.321C20.1989 25.59 20.6331 25.5919 20.9021 25.3253L19.9367 24.3513ZM23.937 20.6962L24.6172 20.7829L23.937 20.6962ZM8.2666 19.7335C7.88789 19.7335 7.58089 20.0405 7.58089 20.4193C7.58089 20.798 7.88789 21.105 8.2666 21.105V19.7335ZM23.9434 20.6402L23.2612 20.571L23.9434 20.6402ZM8.54427 12.2669H23.7333V10.8954H8.54427V12.2669ZM10.7263 9.19343L12.2844 7.64914L11.319 6.67508L9.7609 8.21937L10.7263 9.19343ZM9.7609 8.21937C9.15106 8.82378 8.65179 9.31715 8.2991 9.75632C7.93772 10.2063 7.67424 10.6653 7.60386 11.2175L8.96428 11.3909C8.98956 11.1926 9.08457 10.9685 9.36839 10.6151C9.6609 10.2508 10.0936 9.82055 10.7263 9.19343L9.7609 8.21937ZM21.4948 22.807L19.9367 24.3513L20.9021 25.3253L22.4602 23.781L21.4948 22.807ZM22.4602 23.781C23.07 23.1766 23.5693 22.6833 23.922 22.2441C24.2834 21.7941 24.5468 21.3351 24.6172 20.7829L23.2568 20.6095C23.2315 20.8078 23.1365 21.0319 22.8527 21.3853C22.5602 21.7496 22.1275 22.1799 21.4948 22.807L22.4602 23.781ZM23.2612 20.571C23.2599 20.5839 23.2584 20.5967 23.2568 20.6095L24.6172 20.7829C24.6203 20.7584 24.6232 20.7339 24.6256 20.7094L23.2612 20.571ZM23.7333 19.7335H8.2666V21.105H23.7333V19.7335ZM24.6256 20.7094C24.6837 20.1373 24.2133 19.7335 23.7333 19.7335L23.7333 21.105C23.4977 21.105 23.2279 20.8999 23.2612 20.571L24.6256 20.7094ZM8.54427 10.8954C8.74206 10.8954 9.00467 11.0741 8.96428 11.3909L7.60386 11.2175C7.5247 11.8386 8.03978 12.2669 8.54427 12.2669V10.8954Z" fill="#E31C40"/>
</svg>
