<svg width="24" height="42" viewBox="0 0 24 42" fill="none" xmlns="http://www.w3.org/2000/svg">
<rect x="0.514286" y="0.514286" width="22.9714" height="40.9714" rx="2.05714" stroke="#232323" stroke-width="1.02857"/>
<path d="M0.514286 2.57143C0.514286 1.4353 1.4353 0.514286 2.57143 0.514286H21.4286C22.5647 0.514286 23.4857 1.4353 23.4857 2.57143V5.48571H0.514286V2.57143Z" stroke="#232323" stroke-width="1.02857"/>
<circle cx="12" cy="21" r="7" fill="#E31C40"/>
<path d="M11.1841 22.2251L11.1841 21.0001" stroke="white" stroke-width="0.98" stroke-linecap="round"/>
<path d="M12.8164 22.2251L12.8164 21.0001" stroke="white" stroke-width="0.98" stroke-linecap="round"/>
<path d="M8.3252 18.959H15.6752V18.959C14.9986 18.959 14.4502 19.5074 14.4502 20.184V21.8173C14.4502 23.1704 13.3533 24.2673 12.0002 24.2673V24.2673C10.6471 24.2673 9.5502 23.1704 9.5502 21.8173V20.184C9.5502 19.5074 9.00174 18.959 8.3252 18.959V18.959Z" stroke="white" stroke-width="0.98" stroke-linecap="round"/>
<path d="M11.2109 17.4765C11.2574 17.4331 11.36 17.3947 11.5026 17.3674C11.6452 17.34 11.82 17.3252 11.9997 17.3252C12.1795 17.3252 12.3543 17.34 12.4969 17.3674C12.6395 17.3947 12.742 17.4331 12.7886 17.4765" stroke="white" stroke-width="0.98" stroke-linecap="round"/>
<path d="M23.4857 39.4286C23.4857 40.5647 22.5647 41.4857 21.4286 41.4857H2.57143C1.4353 41.4857 0.514286 40.5647 0.514286 39.4286V37.3714H23.4857V39.4286Z" stroke="#232323" stroke-width="1.02857"/>
<circle cx="12.0001" cy="39.4283" r="1.07143" stroke="#232323" stroke-width="0.428571"/>
<path d="M18.2143 4.71443C18.2143 4.12269 18.694 3.643 19.2857 3.643C19.8774 3.643 20.3571 4.12269 20.3571 4.71443V5.78585H18.2143V4.71443Z" stroke="#232323" stroke-width="0.428571"/>
</svg>
