<svg width="45" height="42" viewBox="0 0 45 42" fill="none" xmlns="http://www.w3.org/2000/svg">
<path d="M6.13706 32.2033L6.44976 31.5896L6.13706 32.2033ZM2.54171 28.6079L3.15542 28.2952L2.54171 28.6079ZM36.9473 28.6079L36.3336 28.2952L36.9473 28.6079ZM33.352 32.2033L33.0393 31.5896L33.352 32.2033ZM33.352 7.67013L33.0393 8.28383L33.352 7.67013ZM36.9473 11.2655L36.3336 11.5782L36.9473 11.2655ZM6.13706 7.67013L6.44976 8.28383L6.13706 7.67013ZM2.54171 11.2655L3.15542 11.5782L2.54171 11.2655ZM12.9958 39.0134C12.6268 39.1056 12.4024 39.4796 12.4947 39.8487C12.5869 40.2177 12.9609 40.4421 13.3299 40.3498L12.9958 39.0134ZM15.7538 39.0339L15.5868 38.3657L15.7538 39.0339ZM23.7352 39.0339L23.9023 38.3657L23.7352 39.0339ZM26.1591 40.3498C26.5281 40.4421 26.9021 40.2177 26.9944 39.8487C27.0866 39.4796 26.8622 39.1056 26.4932 39.0134L26.1591 40.3498ZM20.4333 33.1C20.4333 32.7196 20.1249 32.4112 19.7445 32.4112C19.3641 32.4112 19.0557 32.7196 19.0557 33.1H20.4333ZM19.7445 27.475C19.3641 27.475 19.0557 27.7833 19.0557 28.1637C19.0557 28.5441 19.3641 28.8525 19.7445 28.8525V27.475ZM29.617 28.8525C29.9974 28.8525 30.3057 28.5441 30.3057 28.1637C30.3057 27.7833 29.9974 27.475 29.617 27.475V28.8525ZM19.7445 38.5426V39.2314V38.5426ZM14.8083 7.46221H24.6807V6.08466H14.8083V7.46221ZM24.6807 32.4112H14.8083V33.7887H24.6807V32.4112ZM14.8083 32.4112C12.4931 32.4112 10.7982 32.4107 9.46087 32.3014C8.13159 32.1928 7.21641 31.9802 6.44976 31.5896L5.82436 32.817C6.81758 33.323 7.93422 33.5588 9.34869 33.6744C10.7551 33.7893 12.5159 33.7887 14.8083 33.7887V32.4112ZM0.956244 19.9367C0.956244 22.2291 0.955708 23.9899 1.07062 25.3963C1.18619 26.8108 1.42194 27.9274 1.92801 28.9206L3.15542 28.2952C2.76479 27.5286 2.5522 26.6134 2.44359 25.2841C2.33433 23.9468 2.33379 22.2519 2.33379 19.9367H0.956244ZM6.44976 31.5896C5.03134 30.8668 3.87814 29.7136 3.15542 28.2952L1.92801 28.9206C2.7828 30.5982 4.14675 31.9622 5.82436 32.817L6.44976 31.5896ZM37.1552 19.9367C37.1552 22.2519 37.1547 23.9468 37.0454 25.2841C36.9368 26.6134 36.7242 27.5286 36.3336 28.2952L37.561 28.9206C38.0671 27.9274 38.3028 26.8108 38.4184 25.3963C38.5333 23.9899 38.5328 22.2291 38.5328 19.9367H37.1552ZM24.6807 33.7887C26.9732 33.7887 28.7339 33.7893 30.1403 33.6744C31.5548 33.5588 32.6714 33.323 33.6647 32.817L33.0393 31.5896C32.2726 31.9802 31.3574 32.1928 30.0282 32.3014C28.6908 32.4107 26.9959 32.4112 24.6807 32.4112V33.7887ZM36.3336 28.2952C35.6109 29.7136 34.4577 30.8668 33.0393 31.5896L33.6647 32.817C35.3423 31.9622 36.7062 30.5982 37.561 28.9206L36.3336 28.2952ZM24.6807 7.46221C26.9959 7.46221 28.6908 7.46275 30.0282 7.57201C31.3574 7.68062 32.2726 7.89321 33.0393 8.28383L33.6647 7.05643C32.6714 6.55036 31.5548 6.3146 30.1403 6.19904C28.7339 6.08413 26.9732 6.08466 24.6807 6.08466V7.46221ZM38.5328 19.9367C38.5328 17.6443 38.5333 15.8835 38.4184 14.4771C38.3028 13.0626 38.0671 11.946 37.561 10.9528L36.3336 11.5782C36.7242 12.3448 36.9368 13.26 37.0454 14.5893C37.1547 15.9266 37.1552 17.6215 37.1552 19.9367H38.5328ZM33.0393 8.28383C34.4577 9.00655 35.6109 10.1598 36.3336 11.5782L37.561 10.9528C36.7062 9.27516 35.3423 7.91122 33.6647 7.05643L33.0393 8.28383ZM14.8083 6.08466C12.5159 6.08466 10.7551 6.08413 9.34869 6.19904C7.93422 6.3146 6.81758 6.55036 5.82436 7.05643L6.44976 8.28383C7.21641 7.89321 8.13159 7.68062 9.46087 7.57201C10.7982 7.46275 12.4931 7.46221 14.8083 7.46221V6.08466ZM2.33379 19.9367C2.33379 17.6215 2.33433 15.9266 2.44359 14.5893C2.5522 13.26 2.76479 12.3448 3.15542 11.5782L1.92801 10.9528C1.42194 11.946 1.18619 13.0626 1.07062 14.4771C0.955708 15.8835 0.956244 17.6443 0.956244 19.9367H2.33379ZM5.82436 7.05643C4.14675 7.91122 2.7828 9.27516 1.92801 10.9528L3.15542 11.5782C3.87814 10.1598 5.03134 9.00655 6.44976 8.28383L5.82436 7.05643ZM13.3299 40.3498L15.9209 39.7021L15.5868 38.3657L12.9958 39.0134L13.3299 40.3498ZM23.5682 39.7021L26.1591 40.3498L26.4932 39.0134L23.9023 38.3657L23.5682 39.7021ZM20.4333 38.0362V33.1H19.0557V38.0362H20.4333ZM19.7445 28.8525L29.617 28.8525V27.475L19.7445 27.475V28.8525ZM15.9209 39.7021C17.1761 39.3883 18.4603 39.2314 19.7445 39.2314V37.8538C18.3481 37.8538 16.9517 38.0244 15.5868 38.3657L15.9209 39.7021ZM19.7445 39.2314C21.0287 39.2314 22.3129 39.3883 23.5682 39.7021L23.9023 38.3657C22.5373 38.0244 21.1409 37.8538 19.7445 37.8538V39.2314ZM19.0557 38.0362V38.5426H20.4333V38.0362H19.0557Z" fill="#232323"/>
<path d="M13.1634 28.163C13.1634 29.0717 12.4267 29.8084 11.518 29.8084C10.6092 29.8084 9.87256 29.0717 9.87256 28.163C9.87256 27.2543 10.6092 26.5176 11.518 26.5176C12.4267 26.5176 13.1634 27.2543 13.1634 28.163Z" fill="#232323"/>
<path d="M31.5064 3.15747C32.2166 0.668865 35.7435 0.668865 36.4537 3.15747C36.8347 4.49243 38.2062 5.28427 39.5528 4.94672C42.0631 4.31749 43.8265 7.37181 42.0264 9.23118C41.0608 10.2286 41.0608 11.8123 42.0264 12.8097C43.8265 14.6691 42.0631 17.7234 39.5528 17.0941C38.2062 16.7566 36.8347 17.5484 36.4537 18.8834C35.7435 21.372 32.2166 21.372 31.5064 18.8834C31.1254 17.5484 29.7539 16.7566 28.4073 17.0941C25.897 17.7234 24.1336 14.6691 25.9337 12.8097C26.8993 11.8123 26.8993 10.2286 25.9337 9.23118C24.1336 7.37181 25.897 4.31749 28.4073 4.94672C29.7539 5.28427 31.1254 4.49243 31.5064 3.15747Z" fill="#E31C40"/>
<path d="M31.2249 11.0204C31.2249 12.542 32.4584 13.7755 33.98 13.7755C35.5016 13.7755 36.7351 12.542 36.7351 11.0204C36.7351 9.49883 35.5016 8.26533 33.98 8.26533C32.4584 8.26533 31.2249 9.49883 31.2249 11.0204Z" fill="#E31C40"/>
<path d="M28.4073 4.94672L28.2399 5.61483L28.4073 4.94672ZM31.5064 3.15747L30.8441 2.96845L31.5064 3.15747ZM25.9337 9.23118L26.4286 8.75209L25.9337 9.23118ZM25.9337 12.8097L25.4388 12.3306H25.4388L25.9337 12.8097ZM28.4073 17.0941L28.5748 17.7623L28.4073 17.0941ZM31.5064 18.8834L30.8441 19.0724L31.5064 18.8834ZM36.4537 18.8834L37.116 19.0724L36.4537 18.8834ZM39.5528 17.0941L39.7202 16.426L39.5528 17.0941ZM42.0264 12.8097L41.5315 13.2888L42.0264 12.8097ZM42.0264 9.23118L41.5315 8.75209L42.0264 9.23118ZM39.5528 4.94672L39.3853 4.27862L39.5528 4.94672ZM36.4537 3.15747L37.116 2.96845L36.4537 3.15747ZM28.2399 5.61483C29.947 6.04275 31.6858 5.03889 32.1687 3.34649L30.8441 2.96845C30.5651 3.94596 29.5608 4.52578 28.5748 4.27862L28.2399 5.61483ZM26.4286 8.75209C25.1105 7.39059 26.4017 5.15407 28.2399 5.61483L28.5748 4.27862C25.3923 3.4809 23.1568 7.35304 25.4388 9.71026L26.4286 8.75209ZM26.4286 13.2888C27.6527 12.0243 27.6527 10.0166 26.4286 8.75209L25.4388 9.71026C26.1459 10.4406 26.1459 11.6003 25.4388 12.3306L26.4286 13.2888ZM28.2399 16.426C26.4017 16.8868 25.1105 14.6503 26.4286 13.2888L25.4388 12.3306C23.1568 14.6878 25.3923 18.56 28.5748 17.7623L28.2399 16.426ZM32.1687 18.6944C31.6858 17.002 29.947 15.9981 28.2399 16.426L28.5748 17.7623C29.5608 17.5151 30.5651 18.0949 30.8441 19.0724L32.1687 18.6944ZM35.7913 18.6944C35.2713 20.5166 32.6888 20.5166 32.1687 18.6944L30.8441 19.0724C31.7445 22.2274 36.2156 22.2274 37.116 19.0724L35.7913 18.6944ZM39.7202 16.426C38.0131 15.9981 36.2743 17.002 35.7913 18.6944L37.116 19.0724C37.395 18.0949 38.3992 17.5151 39.3853 17.7623L39.7202 16.426ZM41.5315 13.2888C42.8496 14.6503 41.5584 16.8868 39.7202 16.426L39.3853 17.7623C42.5677 18.56 44.8033 14.6878 42.5212 12.3306L41.5315 13.2888ZM41.5315 8.75209C40.3074 10.0166 40.3074 12.0243 41.5315 13.2888L42.5212 12.3306C41.8142 11.6003 41.8142 10.4406 42.5212 9.71026L41.5315 8.75209ZM39.7202 5.61483C41.5584 5.15408 42.8496 7.39059 41.5315 8.75209L42.5212 9.71026C44.8033 7.35304 42.5677 3.4809 39.3853 4.27862L39.7202 5.61483ZM35.7913 3.34649C36.2743 5.03889 38.0131 6.04275 39.7202 5.61483L39.3853 4.27862C38.3992 4.52578 37.395 3.94596 37.116 2.96845L35.7913 3.34649ZM37.116 2.96845C36.2156 -0.186496 31.7445 -0.186495 30.8441 2.96845L32.1687 3.34649C32.6888 1.52423 35.2713 1.52423 35.7913 3.34649L37.116 2.96845ZM30.5362 11.0204C30.5362 12.9224 32.078 14.4643 33.98 14.4643V13.0868C32.8388 13.0868 31.9137 12.1616 31.9137 11.0204H30.5362ZM33.98 14.4643C35.882 14.4643 37.4239 12.9224 37.4239 11.0204H36.0464C36.0464 12.1616 35.1212 13.0868 33.98 13.0868V14.4643ZM37.4239 11.0204C37.4239 9.11843 35.882 7.57655 33.98 7.57655V8.95411C35.1212 8.95411 36.0464 9.87923 36.0464 11.0204H37.4239ZM33.98 7.57655C32.078 7.57655 30.5362 9.11843 30.5362 11.0204H31.9137C31.9137 9.87923 32.8388 8.95411 33.98 8.95411V7.57655Z" fill="white"/>
</svg>
