<svg width="42" height="41" viewBox="0 0 42 41" fill="none" xmlns="http://www.w3.org/2000/svg">
<path fill-rule="evenodd" clip-rule="evenodd" d="M15 0C15.8284 0 16.5 0.671573 16.5 1.5V3H19.5V1.5C19.5 0.671573 20.1716 0 21 0C21.8284 0 22.5 0.671573 22.5 1.5V3H24C25.6569 3 27 4.34315 27 6C27 7.65685 25.6569 9 24 9H12C10.3431 9 9 7.65685 9 6C9 4.34315 10.3431 3 12 3H13.5V1.5C13.5 0.671573 14.1716 0 15 0Z" fill="#232323"/>
<path d="M10.5 31.5H25.5" stroke="#232323" stroke-width="1.5" stroke-linecap="round" stroke-linejoin="round"/>
<path d="M10.5 24H25.5" stroke="#232323" stroke-width="1.5" stroke-linecap="round" stroke-linejoin="round"/>
<path d="M10.5 16.5H25.5" stroke="#232323" stroke-width="1.5" stroke-linecap="round" stroke-linejoin="round"/>
<rect x="2.1" y="6.6" width="31.8" height="32.8" rx="5.4" stroke="#232323" stroke-width="1.2"/>
<path d="M24.6654 36.4717C24.6654 37.2284 24.7574 37.7348 24.9334 38.0947C25.095 38.4251 25.3577 38.6945 25.8496 38.918C26.367 39.1532 27.121 39.3288 28.2254 39.4404C29.3224 39.5512 30.7119 39.5943 32.4721 39.5943C34.2323 39.5943 35.6218 39.5512 36.7188 39.4404C37.8232 39.3288 38.5772 39.1532 39.0946 38.918C39.5865 38.6945 39.8492 38.4251 40.0108 38.0947C40.1868 37.7348 40.2788 37.2284 40.2788 36.4717C40.2788 35.7149 40.1868 35.2086 40.0108 34.8486C39.8492 34.5182 39.5865 34.2489 39.0946 34.0253C38.5772 33.7901 37.8232 33.6145 36.7188 33.5029C35.6218 33.3921 34.2323 33.349 32.4721 33.349C30.7119 33.349 29.3224 33.3921 28.2254 33.5029C27.121 33.6145 26.367 33.7901 25.8496 34.0253C25.3577 34.2489 25.095 34.5182 24.9334 34.8486C24.7574 35.2086 24.6654 35.7149 24.6654 36.4717Z" fill="#E31C40" stroke="#E31C40" stroke-width="1.56133" stroke-linecap="round" stroke-linejoin="round"/>
<circle cx="4.684" cy="4.684" r="4.23609" transform="matrix(-1 0 0 1 37.1562 21.6392)" stroke="#E31C40" stroke-width="0.895833"/>
</svg>
