<svg width="24" height="42" viewBox="0 0 24 42" fill="none" xmlns="http://www.w3.org/2000/svg">
<rect x="0.514286" y="0.514286" width="22.9714" height="40.9714" rx="2.05714" stroke="#232323" stroke-width="1.02857"/>
<path d="M2.57143 0.514286H21.4286C22.5647 0.514286 23.4857 1.4353 23.4857 2.57143V5.48571H0.514286V2.57143C0.514286 1.4353 1.4353 0.514286 2.57143 0.514286Z" stroke="#232323" stroke-width="1.02857"/>
<path d="M21.4286 41.4857H2.57143C1.4353 41.4857 0.514286 40.5647 0.514286 39.4286V37.3714H23.4857V39.4286C23.4857 40.5647 22.5647 41.4857 21.4286 41.4857Z" stroke="#232323" stroke-width="1.02857"/>
<circle cx="12.0001" cy="39.4283" r="1.07143" stroke="#232323" stroke-width="0.428571"/>
<path d="M20.3571 4.71443V5.78585H18.2143V4.71443C18.2143 4.12269 18.694 3.643 19.2857 3.643C19.8774 3.643 20.3571 4.12269 20.3571 4.71443Z" stroke="#232323" stroke-width="0.428571"/>
<circle cx="12" cy="21" r="5" fill="#E31C40"/>
<line x1="12" y1="17.5" x2="12" y2="24.5" stroke="white"/>
<line x1="8.5" y1="21" x2="15.5" y2="21" stroke="white"/>
</svg>
