<svg width="30" height="34" viewBox="0 0 30 34" fill="none" xmlns="http://www.w3.org/2000/svg">
<path d="M21.0001 15V9.12402M9.00011 15V9.12402M9.00011 9.12402V7.5C9.00011 4.18629 11.6864 1.5 15.0001 1.5C18.3138 1.5 21.0001 4.18629 21.0001 7.5V9.12402M9.00011 9.12402C10.1802 9 11.684 9 13.782 9H16.2182C18.3163 9 19.82 9 21.0001 9.12402M9.00011 9.12402C8.09703 9.21894 7.38353 9.38648 6.73835 9.68225C5.42691 10.2834 4.31669 11.2501 3.5408 12.4664C2.6603 13.8466 2.40555 15.6808 1.89606 19.3492C1.2418 24.0599 0.914669 26.4152 1.63396 28.2445C2.26543 29.8504 3.43136 31.1895 4.93517 32.0359C6.64813 33 9.02608 33 13.782 33H16.2183C20.9741 33 23.3521 33 25.0651 32.0359C26.5689 31.1895 27.7348 29.8504 28.3663 28.2445C29.0856 26.4152 28.7584 24.0599 28.1042 19.3492C27.5947 15.6808 27.3399 13.8466 26.4594 12.4664C25.6835 11.2501 24.5733 10.2834 23.2619 9.68225C22.6167 9.38648 21.9032 9.21894 21.0001 9.12402" stroke="#232323" stroke-width="1.5" stroke-linecap="round"/>
</svg>
