<svg width="40" height="41" viewBox="0 0 40 41" fill="none" xmlns="http://www.w3.org/2000/svg">
<path d="M6.13706 31.2033L6.44976 30.5896L6.13706 31.2033ZM2.54171 27.6079L3.15542 27.2952L2.54171 27.6079ZM36.9473 27.6079L36.3336 27.2952L36.9473 27.6079ZM33.352 31.2033L33.0393 30.5896L33.352 31.2033ZM33.352 6.67013L33.0393 7.28383L33.352 6.67013ZM36.9473 10.2655L36.3336 10.5782L36.9473 10.2655ZM6.13706 6.67013L6.44976 7.28383L6.13706 6.67013ZM2.54171 10.2655L3.15542 10.5782L2.54171 10.2655ZM12.9958 38.0134C12.6268 38.1056 12.4024 38.4796 12.4947 38.8487C12.5869 39.2177 12.9609 39.4421 13.3299 39.3498L12.9958 38.0134ZM15.7538 38.0339L15.5868 37.3657L15.7538 38.0339ZM23.7352 38.0339L23.9023 37.3657L23.7352 38.0339ZM26.1591 39.3498C26.5281 39.4421 26.9021 39.2177 26.9944 38.8487C27.0866 38.4796 26.8622 38.1056 26.4932 38.0134L26.1591 39.3498ZM20.4333 32.1C20.4333 31.7196 20.1249 31.4112 19.7445 31.4112C19.3641 31.4112 19.0557 31.7196 19.0557 32.1H20.4333ZM19.7445 26.475C19.3641 26.475 19.0557 26.7833 19.0557 27.1637C19.0557 27.5441 19.3641 27.8525 19.7445 27.8525V26.475ZM29.617 27.8525C29.9974 27.8525 30.3057 27.5441 30.3057 27.1637C30.3057 26.7833 29.9974 26.475 29.617 26.475V27.8525ZM19.7445 37.5426V38.2314V37.5426ZM14.8083 6.46221H24.6807V5.08466H14.8083V6.46221ZM24.6807 31.4112H14.8083V32.7887H24.6807V31.4112ZM14.8083 31.4112C12.4931 31.4112 10.7982 31.4107 9.46087 31.3014C8.13159 31.1928 7.21641 30.9802 6.44976 30.5896L5.82436 31.817C6.81758 32.323 7.93422 32.5588 9.34869 32.6744C10.7551 32.7893 12.5159 32.7887 14.8083 32.7887V31.4112ZM0.956244 18.9367C0.956244 21.2291 0.955708 22.9899 1.07062 24.3963C1.18619 25.8108 1.42194 26.9274 1.92801 27.9206L3.15542 27.2952C2.76479 26.5286 2.5522 25.6134 2.44359 24.2841C2.33433 22.9468 2.33379 21.2519 2.33379 18.9367H0.956244ZM6.44976 30.5896C5.03134 29.8668 3.87814 28.7136 3.15542 27.2952L1.92801 27.9206C2.7828 29.5982 4.14675 30.9622 5.82436 31.817L6.44976 30.5896ZM37.1552 18.9367C37.1552 21.2519 37.1547 22.9468 37.0454 24.2841C36.9368 25.6134 36.7242 26.5286 36.3336 27.2952L37.561 27.9206C38.0671 26.9274 38.3028 25.8108 38.4184 24.3963C38.5333 22.9899 38.5328 21.2291 38.5328 18.9367H37.1552ZM24.6807 32.7887C26.9732 32.7887 28.7339 32.7893 30.1403 32.6744C31.5548 32.5588 32.6714 32.323 33.6647 31.817L33.0393 30.5896C32.2726 30.9802 31.3574 31.1928 30.0282 31.3014C28.6908 31.4107 26.9959 31.4112 24.6807 31.4112V32.7887ZM36.3336 27.2952C35.6109 28.7136 34.4577 29.8668 33.0393 30.5896L33.6647 31.817C35.3423 30.9622 36.7062 29.5982 37.561 27.9206L36.3336 27.2952ZM24.6807 6.46221C26.9959 6.46221 28.6908 6.46275 30.0282 6.57201C31.3574 6.68062 32.2726 6.89321 33.0393 7.28383L33.6647 6.05643C32.6714 5.55036 31.5548 5.3146 30.1403 5.19904C28.7339 5.08413 26.9732 5.08466 24.6807 5.08466V6.46221ZM38.5328 18.9367C38.5328 16.6443 38.5333 14.8835 38.4184 13.4771C38.3028 12.0626 38.0671 10.946 37.561 9.95278L36.3336 10.5782C36.7242 11.3448 36.9368 12.26 37.0454 13.5893C37.1547 14.9266 37.1552 16.6215 37.1552 18.9367H38.5328ZM33.0393 7.28383C34.4577 8.00655 35.6109 9.15976 36.3336 10.5782L37.561 9.95278C36.7062 8.27516 35.3423 6.91122 33.6647 6.05643L33.0393 7.28383ZM14.8083 5.08466C12.5159 5.08466 10.7551 5.08413 9.34869 5.19904C7.93422 5.3146 6.81758 5.55036 5.82436 6.05643L6.44976 7.28383C7.21641 6.89321 8.13159 6.68062 9.46087 6.57201C10.7982 6.46275 12.4931 6.46221 14.8083 6.46221V5.08466ZM2.33379 18.9367C2.33379 16.6215 2.33433 14.9266 2.44359 13.5893C2.5522 12.26 2.76479 11.3448 3.15542 10.5782L1.92801 9.95278C1.42194 10.946 1.18619 12.0626 1.07062 13.4771C0.955708 14.8835 0.956244 16.6443 0.956244 18.9367H2.33379ZM5.82436 6.05643C4.14675 6.91122 2.7828 8.27516 1.92801 9.95278L3.15542 10.5782C3.87814 9.15976 5.03134 8.00655 6.44976 7.28383L5.82436 6.05643ZM13.3299 39.3498L15.9209 38.7021L15.5868 37.3657L12.9958 38.0134L13.3299 39.3498ZM23.5682 38.7021L26.1591 39.3498L26.4932 38.0134L23.9023 37.3657L23.5682 38.7021ZM20.4333 37.0362V32.1H19.0557V37.0362H20.4333ZM19.7445 27.8525L29.617 27.8525V26.475L19.7445 26.475V27.8525ZM15.9209 38.7021C17.1761 38.3883 18.4603 38.2314 19.7445 38.2314V36.8538C18.3481 36.8538 16.9517 37.0244 15.5868 37.3657L15.9209 38.7021ZM19.7445 38.2314C21.0287 38.2314 22.3129 38.3883 23.5682 38.7021L23.9023 37.3657C22.5373 37.0244 21.1409 36.8538 19.7445 36.8538V38.2314ZM19.0557 37.0362V37.5426H20.4333V37.0362H19.0557Z" fill="#232323"/>
<path d="M13.1634 27.163C13.1634 28.0717 12.4267 28.8084 11.518 28.8084C10.6092 28.8084 9.87256 28.0717 9.87256 27.163C9.87256 26.2543 10.6092 25.5176 11.518 25.5176C12.4267 25.5176 13.1634 26.2543 13.1634 27.163Z" fill="#232323"/>
</svg>
