<svg width="32" height="39" viewBox="0 0 32 39" fill="none" xmlns="http://www.w3.org/2000/svg">
<path d="M6 5.75C6 5.19772 6.44772 4.75 7 4.75H24.5C25.0523 4.75 25.5 5.19772 25.5 5.75V12H6V5.75Z" stroke="#232323" stroke-width="1.5"/>
<path d="M11.3741 9.60877H9.86092C8.80436 9.60877 8.34158 9.87205 8.14202 10.3855H8.0404V10.3942H8.1359C8.03673 10.6628 8 10.9966 8 11.402C8 12.5929 8.24608 13 9.86092 13H20.7902C22.4026 13 22.8017 12.5929 22.8017 11.402C22.8017 10.9513 22.7442 10.586 22.5838 10.3045L22.7601 10.3018V10.2888L22.574 10.2896C22.312 9.83805 21.7806 9.60877 20.7902 9.60877H20.2086C19.6626 7.48075 22.0022 5.79734 22.0022 5.79734C25.5649 3.89512 24.9613 0 24.9613 0C22.8372 2.51945 19.3443 2.68944 19.3443 2.68944C11.3546 2.92308 11.2089 8.18951 11.3741 9.60877Z" fill="#E31C40"/>
<rect x="0.75" y="12.625" width="30" height="17.75" rx="1" stroke="#232323" stroke-width="1.5"/>
<path d="M6 26.625H25.5V37.25C25.5 37.8023 25.0523 38.25 24.5 38.25H7C6.44772 38.25 6 37.8023 6 37.25V26.625Z" stroke="#232323" stroke-width="1.5"/>
<line x1="4.25" y1="26" x2="27.25" y2="26" stroke="#232323" stroke-width="1.5" stroke-linecap="round"/>
<line x1="8.625" y1="33" x2="22.875" y2="33" stroke="#232323" stroke-width="1.5" stroke-linecap="round"/>
<line x1="8.625" y1="35.625" x2="22.875" y2="35.625" stroke="#232323" stroke-width="1.5" stroke-linecap="round"/>
<path d="M26.5163 15.375C25.8864 15.375 25.375 15.8862 25.375 16.5163C25.375 17.1464 25.8862 17.6576 26.5163 17.6576C27.1465 17.6576 27.6578 17.1465 27.6578 16.5163C27.6576 15.8862 27.1465 15.375 26.5163 15.375Z" fill="#E31C40"/>
</svg>
