<svg width="38" height="34" viewBox="0 0 38 34" fill="none" xmlns="http://www.w3.org/2000/svg">
<path d="M31.1875 12.4544C31.7396 13.6911 31.9738 15.3769 32.3761 18.2741C32.994 22.723 33.303 24.9475 32.6237 26.6752C32.0273 28.1919 30.9261 29.4566 29.5059 30.256C27.8881 31.1665 25.6422 31.1665 21.1505 31.1665H18.8496C14.3579 31.1665 12.1121 31.1665 10.4943 30.256C9.07404 29.4566 7.97288 28.1919 7.37649 26.6752C6.69716 24.9475 7.00612 22.723 7.62403 18.2741C8.00097 15.5601 8.23028 13.9091 8.71169 12.6945M31.1875 12.4544C31.0793 12.2122 30.959 11.9871 30.8228 11.7736C30.09 10.625 29.0414 9.71198 27.8029 9.14418C27.5742 9.03934 27.3364 8.95155 27.0834 8.87805M31.1875 12.4544L31.0612 12.578L29.8455 13.7936C25.1233 18.5159 22.7622 20.877 19.8282 20.877C16.8942 20.877 14.5331 18.5159 9.81084 13.7936L8.71169 12.6945M27.0834 8.87805C25.7818 8.49984 24.0792 8.49984 21.1505 8.49984H18.8496C15.9209 8.49984 14.2183 8.49984 12.9167 8.87805M27.0834 8.87805V8.49984C27.0834 4.58782 23.9121 1.4165 20.0001 1.4165C16.0881 1.4165 12.9167 4.58782 12.9167 8.49984V8.87805M12.9167 8.87805C12.6638 8.95155 12.426 9.03934 12.1973 9.14418C10.9587 9.71198 9.91018 10.625 9.1774 11.7736C8.99724 12.0561 8.84482 12.3586 8.71169 12.6945" stroke="#232323" stroke-width="1.6"/>
<line x1="35.5435" y1="9.07163" x2="2.07163" y2="30.4565" stroke="white" stroke-width="3" stroke-linecap="round"/>
<line x1="36.6957" y1="8.38109" x2="2.38108" y2="30.3043" stroke="#E31C40" stroke-width="2" stroke-linecap="round"/>
</svg>
