<svg width="36" height="36" viewBox="0 0 36 36" fill="none" xmlns="http://www.w3.org/2000/svg">
<path d="M2.2276 2.81808C2.12713 2.41624 1.71993 2.17193 1.31808 2.2724C0.916238 2.37287 0.671926 2.78007 0.772397 3.18192L2.2276 2.81808ZM8.64846 25.1781L9.09928 24.5787L8.64846 25.1781ZM4.53194 15.3776L5.26128 15.2028L4.53194 15.3776ZM8.3786 24.9652L8.85641 24.3871L8.3786 24.9652ZM33.0288 16.1138L33.7581 16.2886L33.0288 16.1138ZM29.8346 24.5362L29.3092 24.001L29.8346 24.5362ZM28.5606 25.541L28.9586 26.1767L28.5606 25.541ZM32.9131 10.134L33.4279 9.5885L32.9131 10.134ZM33.4557 10.822L34.1061 10.4485L33.4557 10.822ZM21.0002 15.75C20.5859 15.75 20.2502 16.0858 20.2502 16.5C20.2502 16.9142 20.5859 17.25 21.0002 17.25V15.75ZM25.5002 20.25C25.0859 20.25 24.7502 20.5858 24.7502 21C24.7502 21.4142 25.0859 21.75 25.5002 21.75V20.25ZM3.0791 10.0658H27.6675V8.56579H3.0791V10.0658ZM19.6256 25.9342H18.8686V27.4342H19.6256V25.9342ZM5.26128 15.2028L3.80845 9.14099L2.34976 9.49059L3.80259 15.5524L5.26128 15.2028ZM3.8067 9.13387L2.2276 2.81808L0.772397 3.18192L2.3515 9.49771L3.8067 9.13387ZM18.8686 25.9342C16.1117 25.9342 14.1083 25.933 12.5416 25.751C10.994 25.5711 9.95457 25.222 9.09928 24.5787L8.19764 25.7774C9.34485 26.6403 10.6763 27.0443 12.3685 27.2409C14.0417 27.4354 16.1471 27.4342 18.8686 27.4342V25.9342ZM3.80259 15.5524C4.43689 18.199 4.92645 20.2467 5.50553 21.8285C6.09117 23.4282 6.79432 24.6288 7.9008 25.5433L8.85641 24.3871C8.03149 23.7053 7.44973 22.7759 6.9141 21.3128C6.3719 19.8317 5.90383 17.8838 5.26128 15.2028L3.80259 15.5524ZM9.09928 24.5787C9.01687 24.5167 8.93589 24.4528 8.85641 24.3871L7.9008 25.5433C7.99795 25.6236 8.09692 25.7017 8.19764 25.7774L9.09928 24.5787ZM19.6256 27.4342C21.9801 27.4342 23.8016 27.4351 25.2611 27.2875C26.7357 27.1384 27.9111 26.8325 28.9586 26.1767L28.1626 24.9053C27.3841 25.3927 26.4618 25.6584 25.1102 25.7951C23.7436 25.9333 22.0106 25.9342 19.6256 25.9342V27.4342ZM29.3092 24.001C28.9608 24.3431 28.5763 24.6463 28.1626 24.9053L28.9586 26.1767C29.4643 25.86 29.9342 25.4895 30.36 25.0715L29.3092 24.001ZM27.6675 10.0658C29.1465 10.0658 30.187 10.0671 30.969 10.1625C31.7387 10.2565 32.1336 10.4296 32.3984 10.6794L33.4279 9.5885C32.8257 9.02019 32.0573 8.78421 31.1507 8.67358C30.2565 8.56447 29.1076 8.56579 27.6675 8.56579V10.0658ZM33.7581 16.2886C34.0938 14.8882 34.3628 13.7712 34.4651 12.8762C34.5688 11.9688 34.5184 11.1666 34.1061 10.4485L32.8053 11.1954C32.9866 11.5111 33.0629 11.9355 32.9748 12.7059C32.8853 13.4886 32.6441 14.5007 32.2994 15.939L33.7581 16.2886ZM32.3984 10.6794C32.5585 10.8306 32.6956 11.0044 32.8053 11.1954L34.1061 10.4485C33.9234 10.1302 33.6948 9.84044 33.4279 9.5885L32.3984 10.6794ZM31.5002 20.25H25.5002V21.75H31.5002V20.25ZM32.9362 15.75L21.0002 15.75V17.25L32.9362 17.25L32.9362 15.75ZM32.2994 15.939C32.2681 16.0696 32.2373 16.1982 32.2069 16.3251L33.6655 16.6749C33.696 16.548 33.7268 16.4192 33.7581 16.2886L32.2994 15.939ZM32.2069 16.3251C31.7613 18.1826 31.4107 19.6183 31.0422 20.7717L32.471 21.2283C32.8597 20.0117 33.2233 18.5184 33.6655 16.6749L32.2069 16.3251ZM31.0422 20.7717C30.5458 22.3251 30.0415 23.2821 29.3092 24.001L30.36 25.0715C31.345 24.1045 31.9434 22.8793 32.471 21.2283L31.0422 20.7717ZM31.5002 21.75H31.7566V20.25H31.5002V21.75Z" fill="#232323"/>
<path d="M15.7106 31.4207C15.7106 32.2928 15.0037 32.9997 14.1317 32.9997C13.2597 32.9997 12.5527 32.2928 12.5527 31.4207C12.5527 30.5487 13.2597 29.8418 14.1317 29.8418C15.0037 29.8418 15.7106 30.5487 15.7106 31.4207Z" fill="#232323"/>
<path d="M25.1843 31.4207C25.1843 32.2928 24.4774 32.9997 23.6054 32.9997C22.7333 32.9997 22.0264 32.2928 22.0264 31.4207C22.0264 30.5487 22.7333 29.8418 23.6054 29.8418C24.4774 29.8418 25.1843 30.5487 25.1843 31.4207Z" fill="#232323"/>
<rect x="10.5" y="5.5" width="8" height="12" rx="0.5" fill="#E31C40" stroke="white"/>
</svg>
