<svg width="47" height="41" viewBox="0 0 47 41" fill="none" xmlns="http://www.w3.org/2000/svg">
<path fill-rule="evenodd" clip-rule="evenodd" d="M15 0C15.8284 0 16.5 0.671573 16.5 1.5V3H19.5V1.5C19.5 0.671573 20.1716 0 21 0C21.8284 0 22.5 0.671573 22.5 1.5V3H24C25.6569 3 27 4.34315 27 6C27 7.65685 25.6569 9 24 9H12C10.3431 9 9 7.65685 9 6C9 4.34315 10.3431 3 12 3H13.5V1.5C13.5 0.671573 14.1716 0 15 0Z" fill="#232323"/>
<path d="M10.5 31.5H25.5" stroke="#232323" stroke-width="1.5" stroke-linecap="round" stroke-linejoin="round"/>
<path d="M10.5 24H25.5" stroke="#232323" stroke-width="1.5" stroke-linecap="round" stroke-linejoin="round"/>
<path d="M10.5 16.5H25.5" stroke="#232323" stroke-width="1.5" stroke-linecap="round" stroke-linejoin="round"/>
<rect x="2.1" y="6.6" width="31.8" height="32.8" rx="5.4" stroke="#232323" stroke-width="1.2"/>
<path d="M35.5 23.5L28.9282 30.0718C28.7157 30.2843 28.6094 30.3906 28.5395 30.5212C28.4697 30.6517 28.4402 30.7991 28.3812 31.0938L27.6471 34.7646C27.5806 35.0972 27.5473 35.2635 27.6419 35.3581C27.7365 35.4527 27.9028 35.4194 28.2354 35.3529L31.9062 34.6188C32.2009 34.5598 32.3483 34.5303 32.4788 34.4605C32.6094 34.3906 32.7157 34.2843 32.9282 34.0718L39.5 27.5L35.5 23.5Z" fill="#FB6782"/>
<path d="M28.954 35.38L28.954 35.38L28.9801 35.3734L28.9801 35.3734L31.6081 34.7164C31.6243 34.7124 31.6404 34.7084 31.6565 34.7044C31.8753 34.65 32.0856 34.5978 32.2771 34.4894C32.4685 34.381 32.6215 34.2275 32.7807 34.0679C32.7924 34.0561 32.8042 34.0444 32.816 34.0325L40.0101 26.8385L40.0101 26.8385L40.0369 26.8117C40.3472 26.5014 40.6215 26.2272 40.8128 25.9764C41.0202 25.7046 41.1858 25.391 41.1858 25C41.1858 24.609 41.0202 24.2954 40.8128 24.0236C40.6215 23.7728 40.3472 23.4986 40.0369 23.1883L40.01 23.1615L39.8385 22.9899L39.8117 22.9631C39.5014 22.6528 39.2272 22.3785 38.9764 22.1872C38.7046 21.9798 38.391 21.8142 38 21.8142C37.609 21.8142 37.2954 21.9798 37.0236 22.1872C36.7729 22.3785 36.4986 22.6528 36.1884 22.9631L36.1615 22.9899L28.9675 30.184C28.9556 30.1958 28.9439 30.2076 28.9321 30.2193C28.7725 30.3785 28.619 30.5315 28.5106 30.7229C28.4022 30.9144 28.35 31.1247 28.2956 31.3435C28.2916 31.3596 28.2876 31.3757 28.2836 31.3919L27.62 34.046C27.6176 34.0557 27.6152 34.0654 27.6127 34.0752C27.5741 34.2293 27.5304 34.4035 27.5159 34.5518C27.4998 34.7169 27.5013 35.0162 27.7426 35.2574C27.9838 35.4987 28.2831 35.5002 28.4482 35.4841C28.5965 35.4696 28.7707 35.4259 28.9248 35.3873C28.9346 35.3848 28.9443 35.3824 28.954 35.38Z" stroke="#E31C40" stroke-width="1.2"/>
<path d="M35.5 23.5L39.5 27.5" stroke="#E31C40" stroke-width="1.2"/>
</svg>
