<svg width="32" height="32" viewBox="0 0 32 32" fill="none" xmlns="http://www.w3.org/2000/svg">
<path d="M19.7775 13.7619C19.9886 14.2347 20.0781 14.8793 20.232 15.987C20.4683 17.6881 20.5864 18.5387 20.3266 19.1992C20.0986 19.7792 19.6776 20.2627 19.1345 20.5684C18.516 20.9165 17.6573 20.9165 15.9399 20.9165H15.0601C13.3427 20.9165 12.484 20.9165 11.8654 20.5684C11.3224 20.2627 10.9013 19.7792 10.6733 19.1992C10.4136 18.5387 10.5317 17.6881 10.768 15.987C10.9121 14.9493 10.9998 14.3181 11.1838 13.8537M19.7775 13.7619C19.7361 13.6693 19.6901 13.5832 19.6381 13.5016C19.3579 13.0624 18.957 12.7133 18.4834 12.4962C18.3959 12.4561 18.305 12.4226 18.2083 12.3944M19.7775 13.7619L19.7292 13.8091L19.2644 14.2739C17.4589 16.0795 16.5561 16.9823 15.4342 16.9823C14.3124 16.9823 13.4096 16.0795 11.6041 14.2739L11.1838 13.8537M18.2083 12.3944C17.7106 12.2498 17.0596 12.2498 15.9399 12.2498H15.0601C13.9403 12.2498 13.2893 12.2498 12.7916 12.3944M18.2083 12.3944V12.2498C18.2083 10.7541 16.9957 9.5415 15.5 9.5415C14.0042 9.5415 12.7916 10.7541 12.7916 12.2498V12.3944M12.7916 12.3944C12.6949 12.4226 12.604 12.4561 12.5166 12.4962C12.043 12.7133 11.6421 13.0624 11.3619 13.5016C11.293 13.6096 11.2347 13.7252 11.1838 13.8537" stroke="#E31C40" stroke-width="0.722222"/>
<path d="M3.4165 16.0002C3.4165 15.5859 3.08072 15.2502 2.6665 15.2502C2.25229 15.2502 1.9165 15.5859 1.9165 16.0002H3.4165ZM28.5832 16.0002C28.5832 16.4144 28.919 16.7502 29.3332 16.7502C29.7474 16.7502 30.0832 16.4144 30.0832 16.0002H28.5832ZM5.86706 7.3335L6.40706 7.85398L6.4224 7.83805L6.43679 7.82125L5.86706 7.3335ZM26.1326 24.6668L26.7023 25.1546L26.7116 25.1438L26.7205 25.1326L26.1326 24.6668ZM5.10009 1.33684C5.10194 0.922633 4.76765 0.585352 4.35344 0.583504C3.93923 0.581656 3.60195 0.915941 3.60011 1.33015L5.10009 1.33684ZM4.33828 3.98111L3.58829 3.97777L4.33828 3.98111ZM9.24495 8.88778L9.2483 9.63777L9.24495 8.88778ZM11.8959 9.62596C12.3101 9.62411 12.6444 9.28683 12.6426 8.87262C12.6407 8.45841 12.3034 8.12413 11.8892 8.12597L11.8959 9.62596ZM4.88302 7.87039L4.28989 8.32941L4.28989 8.32941L4.88302 7.87039ZM5.35568 8.34305L4.89666 8.93618L4.89666 8.93618L5.35568 8.34305ZM26.7923 30.5563C26.7905 30.9705 27.1248 31.3078 27.539 31.3096C27.9532 31.3114 28.2905 30.9772 28.2923 30.563L26.7923 30.5563ZM27.5541 27.912L28.3041 27.9153V27.9153L27.5541 27.912ZM22.6475 23.0053L22.6441 22.2553L22.6475 23.0053ZM19.9965 22.2671C19.5823 22.269 19.248 22.6063 19.2499 23.0205C19.2517 23.4347 19.589 23.769 20.0032 23.7671L19.9965 22.2671ZM27.0094 24.0227L27.6025 23.5637V23.5637L27.0094 24.0227ZM26.5367 23.5501L26.9958 22.9569L26.9958 22.9569L26.5367 23.5501ZM5.10586 8.12324L4.57596 8.654L5.10586 8.12324ZM15.9998 28.5835C9.05025 28.5835 3.4165 22.9497 3.4165 16.0002H1.9165C1.9165 23.7782 8.22183 30.0835 15.9998 30.0835V28.5835ZM15.9998 3.41683C22.9494 3.41683 28.5832 9.05058 28.5832 16.0002H30.0832C30.0832 8.22215 23.7778 1.91683 15.9998 1.91683V3.41683ZM6.43679 7.82125C8.74582 5.12415 12.173 3.41683 15.9998 3.41683V1.91683C11.7165 1.91683 7.87918 3.82997 5.29732 6.84574L6.43679 7.82125ZM25.5629 24.1791C23.2539 26.8762 19.8266 28.5835 15.9998 28.5835V30.0835C20.2832 30.0835 24.1205 28.1704 26.7023 25.1546L25.5629 24.1791ZM3.60011 1.33015L3.58829 3.97777L5.08828 3.98446L5.10009 1.33684L3.60011 1.33015ZM9.2483 9.63777L11.8959 9.62596L11.8892 8.12597L9.24161 8.13779L9.2483 9.63777ZM3.58829 3.97777C3.58366 5.01584 3.57877 5.85778 3.65198 6.52815C3.72683 7.21361 3.89106 7.81406 4.28989 8.32941L5.47614 7.41137C5.31611 7.20458 5.20326 6.9161 5.14311 6.36531C5.08132 5.79944 5.08349 5.05781 5.08828 3.98446L3.58829 3.97777ZM9.24161 8.13779C8.16826 8.14258 7.42663 8.14475 6.86075 8.08295C6.30997 8.0228 6.02149 7.90996 5.8147 7.74992L4.89666 8.93618C5.41201 9.335 6.01245 9.49923 6.69791 9.57409C7.36829 9.6473 8.21023 9.6424 9.2483 9.63777L9.24161 8.13779ZM28.2923 30.563L28.3041 27.9153L26.8041 27.9086L26.7923 30.5563L28.2923 30.563ZM22.6441 22.2553L19.9965 22.2671L20.0032 23.7671L22.6508 23.7553L22.6441 22.2553ZM28.3041 27.9153C28.3088 26.8773 28.3136 26.0353 28.2404 25.365C28.1656 24.6795 28.0014 24.079 27.6025 23.5637L26.4163 24.4817C26.5763 24.6885 26.6892 24.977 26.7493 25.5278C26.8111 26.0937 26.8089 26.8353 26.8041 27.9086L28.3041 27.9153ZM22.6508 23.7553C23.7242 23.7505 24.4658 23.7484 25.0317 23.8102C25.5824 23.8703 25.8709 23.9831 26.0777 24.1432L26.9958 22.9569C26.4804 22.5581 25.88 22.3939 25.1945 22.319C24.5241 22.2458 23.6822 22.2507 22.6441 22.2553L22.6508 23.7553ZM4.28989 8.32941C4.37833 8.4437 4.4739 8.5521 4.57596 8.654L5.63576 7.59248C5.57882 7.53563 5.5255 7.47515 5.47614 7.41137L4.28989 8.32941ZM4.57596 8.654C4.67673 8.7546 4.78382 8.84886 4.89666 8.93618L5.8147 7.74992C5.75173 7.70119 5.69198 7.6486 5.63576 7.59248L4.57596 8.654ZM5.32706 6.81301L4.56586 7.60275L5.64586 8.64372L6.40706 7.85398L5.32706 6.81301ZM27.6025 23.5637C27.5258 23.4646 27.4438 23.3699 27.3568 23.2801L26.2792 24.3235C26.3277 24.3736 26.3735 24.4264 26.4163 24.4817L27.6025 23.5637ZM27.3568 23.2801C27.2444 23.164 27.1238 23.056 26.9958 22.9569L26.0777 24.1432C26.1492 24.1985 26.2165 24.2587 26.2792 24.3235L27.3568 23.2801ZM26.7205 25.1326L27.4058 24.2676L26.2302 23.336L25.5448 24.2011L26.7205 25.1326Z" fill="#232323"/>
</svg>
