<svg width="45" height="29" viewBox="0 0 45 29" fill="none" xmlns="http://www.w3.org/2000/svg">
<path d="M7.03141 0.633472C6.31096 0.953873 5.78626 1.60277 5.65306 2.34122L5.59096 2.67017H3.02011H0.449707V3.33707V4.00397H5.51941H10.5891V3.33707V2.67017H8.76571C6.72001 2.67017 6.67546 2.65217 7.24471 2.08337L7.54711 1.78097H18.5757C28.4838 1.78097 29.6219 1.79897 29.7465 1.92317C29.8266 1.99427 29.8887 2.08337 29.8887 2.10992C29.8887 2.17202 27.4074 16.2782 27.3539 16.518L27.3093 16.7228H15.7475C4.50556 16.7228 4.18516 16.7138 4.18516 16.5536C4.18516 16.4645 4.21171 16.2602 4.23871 16.109L4.30081 15.8331H7.44046H10.5891V15.1662V14.4993H5.51941H0.449707V15.1662V15.8331H1.70386H2.95801L2.90446 16.0734C2.69971 17.0252 1.78396 22.4328 1.78396 22.6817C1.79296 23.1353 2.07736 23.6865 2.45986 23.9804L2.78881 24.2382L4.97671 24.2828L7.16461 24.3273L7.21816 25.0923C7.33381 26.7555 8.35666 28.0097 9.92176 28.4187C11.5049 28.8278 13.2482 28.2941 14.5554 26.9958C15.2669 26.2929 15.6138 25.7507 15.8982 24.9056L16.094 24.3273L22.3643 24.3008L28.6436 24.2828V24.7188C28.6436 26.5508 29.8086 28.0452 31.5699 28.4633C31.8633 28.5344 32.3259 28.5609 32.7705 28.5254C34.7982 28.4007 36.7373 26.8712 37.3776 24.8966L37.5734 24.2828H39.5745C41.4956 24.2828 41.6022 24.2738 42.0383 24.0695C42.5184 23.8472 42.999 23.34 43.1412 22.9044C43.1858 22.7622 43.5327 20.8943 43.9062 18.7689C44.4665 15.5672 44.5731 14.7846 44.5466 14.2329C44.502 13.6106 44.3954 13.3082 42.8834 9.67037C41.9942 7.52702 41.1936 5.61452 41.0955 5.43677C41.0064 5.25002 40.7666 4.95662 40.5708 4.77842L40.2063 4.44947H35.5362C31.7918 4.44947 30.867 4.42292 30.867 4.33382C30.867 4.27172 30.9471 3.76457 31.0538 3.21332C31.205 2.35967 31.223 2.12837 31.1339 1.79042C31.0007 1.24772 30.6893 0.865671 30.2177 0.634373L29.8352 0.447622H18.6288C7.56466 0.446722 7.42246 0.455273 7.03141 0.633472ZM40.0457 6.31652C40.1789 6.58337 40.2945 6.83222 40.2945 6.86777C40.2945 6.91232 38.6493 6.93887 36.6482 6.93887C33.1886 6.93887 32.9748 6.94787 32.6549 7.11662C32.0591 7.41902 31.97 7.65932 31.4808 10.425C31.214 11.937 31.0538 13.0485 31.0893 13.2177C31.1159 13.3779 31.2225 13.6092 31.3296 13.7424C31.7211 14.2406 31.641 14.2316 37.671 14.2316H43.2299V14.5524C43.2299 14.8017 42.1715 21.0626 41.9316 22.2546C41.9051 22.3793 41.7804 22.5926 41.6558 22.7172L41.4245 22.9485H39.4944H37.5554L37.5018 22.566C37.262 20.9649 35.5808 19.6577 33.7664 19.6577C33.2061 19.6577 32.0942 19.9691 31.4628 20.298C30.7604 20.6625 29.5683 21.8456 29.2659 22.4769L29.0436 22.9395L22.5776 22.9485H16.121L16.0143 22.4774C15.6674 21.0099 14.4668 19.9515 12.8571 19.7202C10.9451 19.4444 8.72161 20.6805 7.74286 22.5665L7.54711 22.949H5.37676C3.43771 22.949 3.19786 22.931 3.14431 22.8068C3.11776 22.7177 3.26896 21.6327 3.48226 20.3786L3.88231 18.1016L16.1561 18.075L28.4298 18.057L29.4347 12.3384C29.9859 9.19877 30.4575 6.53972 30.4841 6.43262C30.5106 6.32597 30.6263 6.13022 30.7509 6.00557L30.9822 5.78327L35.3936 5.80127L39.8049 5.82782L40.0457 6.31652ZM35.9102 10.052C35.9633 11.0037 36.0168 12.0351 36.0168 12.3375L36.0258 12.8978H34.247C33.2687 12.8978 32.4681 12.8622 32.4681 12.8177C32.4681 12.6309 33.1886 8.42387 33.2331 8.35277C33.2597 8.30822 33.8469 8.28167 34.5404 8.29067L35.8035 8.31722L35.9102 10.052ZM41.1576 8.95802C41.3088 9.34052 41.7359 10.3809 42.1094 11.2706L42.7763 12.8982H40.0812H37.3862L37.2795 10.7814C37.2264 9.62537 37.1549 8.58452 37.1283 8.46887L37.0928 8.27312H38.9783H40.8728L41.1576 8.95802ZM12.9813 21.0896C13.835 21.2673 14.591 22.0413 14.7692 22.922C15.0716 24.3629 14.0667 26.1062 12.5012 26.8707C11.9319 27.1466 11.8073 27.1731 11.0337 27.1731C10.091 27.1731 9.70846 27.0309 9.17476 26.4972C7.59166 24.9141 8.97001 21.7479 11.5229 21.1166C12.0921 20.9739 12.4301 20.9649 12.9813 21.0896ZM35.0115 21.3029C36.6747 22.121 36.7103 24.5226 35.0736 26.1143C33.8375 27.3239 31.8719 27.5552 30.7955 26.63C30.1907 26.1143 30.0215 25.7138 30.0215 24.771C30.0215 24.0506 30.048 23.9084 30.3063 23.3657C31.214 21.4631 33.3839 20.5113 35.0115 21.3029Z" fill="#232323"/>
</svg>
