<svg width="69" height="27" viewBox="0 0 69 27" fill="none" xmlns="http://www.w3.org/2000/svg">
<path d="M22.3838 9.89038C22.8223 10.8725 23.0082 12.2112 23.3278 14.5119C23.8185 18.0449 24.0638 19.8114 23.5243 21.1834C23.0507 22.3878 22.1763 23.3921 21.0484 24.0269C19.7637 24.75 17.9802 24.75 14.4133 24.75H12.5861C9.01919 24.75 7.23573 24.75 5.95101 24.0269C4.82316 23.3921 3.9487 22.3878 3.47511 21.1834C2.93564 19.8114 3.18098 18.0449 3.67168 14.5119C3.97102 12.3567 4.15311 11.0456 4.53541 10.081M22.3838 9.89038C22.2979 9.69802 22.2024 9.51934 22.0942 9.34979C21.5123 8.43759 20.6796 7.71258 19.696 7.26169C19.5144 7.17843 19.3256 7.10872 19.1247 7.05035M22.3838 9.89038L22.2835 9.98851L21.3182 10.9539C17.5682 14.7039 15.6932 16.5789 13.3632 16.5789C11.0333 16.5789 9.15826 14.7039 5.40826 10.9539L4.53541 10.081M19.1247 7.05035C18.0911 6.75 16.739 6.75 14.4133 6.75H12.5861C10.2604 6.75 8.90832 6.75 7.87472 7.05035M19.1247 7.05035V6.75C19.1247 3.6434 16.6063 1.125 13.4997 1.125C10.3931 1.125 7.87472 3.6434 7.87472 6.75V7.05035M7.87472 7.05035C7.67385 7.10872 7.48501 7.17843 7.30339 7.26169C6.31982 7.71258 5.48715 8.43759 4.90523 9.34979C4.76217 9.57405 4.64113 9.8143 4.53541 10.081" stroke="#232323" stroke-width="1.5"/>
<path d="M64.0088 9.89038C64.4473 10.8725 64.6332 12.2112 64.9528 14.5119C65.4435 18.0449 65.6888 19.8114 65.1493 21.1834C64.6757 22.3878 63.8013 23.3921 62.6734 24.0269C61.3887 24.75 59.6052 24.75 56.0383 24.75H54.2111C50.6442 24.75 48.8607 24.75 47.576 24.0269C46.4482 23.3921 45.5737 22.3878 45.1001 21.1834C44.5606 19.8114 44.806 18.0449 45.2967 14.5119C45.596 12.3567 45.7781 11.0456 46.1604 10.081M64.0088 9.89038C63.9229 9.69802 63.8274 9.51934 63.7192 9.34979C63.1373 8.43759 62.3046 7.71258 61.321 7.26169C61.1394 7.17843 60.9506 7.10872 60.7497 7.05035M64.0088 9.89038L63.9085 9.98851L62.9432 10.9539C59.1932 14.7039 57.3182 16.5789 54.9882 16.5789C52.6583 16.5789 50.7833 14.7039 47.0333 10.9539L46.1604 10.081M60.7497 7.05035C59.7161 6.75 58.364 6.75 56.0383 6.75H54.2111C51.8854 6.75 50.5333 6.75 49.4997 7.05035M60.7497 7.05035V6.75C60.7497 3.6434 58.2313 1.125 55.1247 1.125C52.0181 1.125 49.4997 3.6434 49.4997 6.75V7.05035M49.4997 7.05035C49.2989 7.10872 49.11 7.17843 48.9284 7.26169C47.9448 7.71258 47.1122 8.43759 46.5302 9.34979C46.3872 9.57405 46.2661 9.8143 46.1604 10.081" stroke="#232323" stroke-width="1.5"/>
<path d="M29.75 17.1875C29.4393 17.1875 29.1875 17.4393 29.1875 17.75C29.1875 18.0607 29.4393 18.3125 29.75 18.3125L29.75 17.1875ZM39.5 17.75V17.1875V17.75ZM36.9005 20.3092C36.6571 20.5022 36.6162 20.8561 36.8092 21.0995C37.0022 21.3429 37.3561 21.3838 37.5995 21.1908L36.9005 20.3092ZM38.5722 19.7016L38.9217 20.1424L38.5722 19.7016ZM38.5722 15.7984L38.2227 16.2391H38.2227L38.5722 15.7984ZM37.5995 14.3092C37.3561 14.1162 37.0022 14.1571 36.8092 14.4005C36.6162 14.6439 36.6571 14.9978 36.9005 15.1908L37.5995 14.3092ZM40.2351 17.938L40.7906 18.0265V18.0265L40.2351 17.938ZM40.2351 17.562L40.7906 17.4735V17.4735L40.2351 17.562ZM39.5 10.8125C39.8107 10.8125 40.0625 10.5607 40.0625 10.25C40.0625 9.93934 39.8107 9.6875 39.5 9.6875V10.8125ZM29.75 10.25V10.8125V10.8125V10.25ZM31.6505 13.6908C31.8939 13.8838 32.2478 13.8429 32.4408 13.5995C32.6338 13.3561 32.5929 13.0023 32.3495 12.8092L31.6505 13.6908ZM30.6778 12.2016L30.3283 12.6424L30.6778 12.2016ZM30.6778 8.29839L30.3283 7.85762L30.6778 8.29839ZM32.3495 7.69076C32.5929 7.49775 32.6338 7.14395 32.4408 6.90052C32.2478 6.6571 31.8939 6.61623 31.6505 6.80924L32.3495 7.69076ZM29.0149 10.438L28.4594 10.5265L28.4594 10.5265L29.0149 10.438ZM29.0149 10.062L28.4594 9.9735L28.4594 9.9735L29.0149 10.062ZM29.75 18.3125L39.5 18.3125V17.1875L29.75 17.1875L29.75 18.3125ZM37.5995 21.1908L38.9217 20.1424L38.2227 19.2609L36.9005 20.3092L37.5995 21.1908ZM38.9217 15.3576L37.5995 14.3092L36.9005 15.1908L38.2227 16.2391L38.9217 15.3576ZM38.9217 20.1424C39.4382 19.7329 39.8639 19.3964 40.1656 19.0959C40.4699 18.7928 40.7221 18.4564 40.7906 18.0265L39.6796 17.8495C39.6669 17.9291 39.6149 18.0565 39.3717 18.2988C39.1259 18.5437 38.7607 18.8343 38.2227 19.2609L38.9217 20.1424ZM38.2227 16.2391C38.7607 16.6657 39.1259 16.9563 39.3717 17.2012C39.6149 17.4435 39.6669 17.5709 39.6796 17.6505L40.7906 17.4735C40.7221 17.0436 40.4699 16.7072 40.1656 16.4041C39.8639 16.1036 39.4382 15.7671 38.9217 15.3576L38.2227 16.2391ZM39.5 9.6875L29.75 9.6875L29.75 10.8125L39.5 10.8125V9.6875ZM32.3495 12.8092L31.0273 11.7609L30.3283 12.6424L31.6505 13.6908L32.3495 12.8092ZM31.0273 8.73915L32.3495 7.69076L31.6505 6.80924L30.3283 7.85762L31.0273 8.73915ZM31.0273 11.7609C30.4893 11.3343 30.1241 11.0437 29.8783 10.7988C29.6351 10.5565 29.5831 10.4291 29.5704 10.3495L28.4594 10.5265C28.5279 10.9564 28.7801 11.2928 29.0844 11.5959C29.3861 11.8964 29.8118 12.2329 30.3283 12.6424L31.0273 11.7609ZM30.3283 7.85762C29.8118 8.26712 29.3861 8.60356 29.0844 8.90414C28.7801 9.20722 28.5279 9.54362 28.4594 9.9735L29.5704 10.1505C29.5831 10.0709 29.6351 9.94349 29.8783 9.70116C30.1241 9.45633 30.4893 9.16572 31.0273 8.73915L30.3283 7.85762ZM29.5704 10.3495C29.5651 10.3162 29.5625 10.283 29.5625 10.25L28.4375 10.25C28.4375 10.3425 28.4448 10.4349 28.4594 10.5265L29.5704 10.3495ZM29.5625 10.25C29.5625 10.217 29.5651 10.1838 29.5704 10.1505L28.4594 9.9735C28.4448 10.0651 28.4375 10.1575 28.4375 10.25L29.5625 10.25ZM29.75 9.6875H29V10.8125H29.75V9.6875ZM40.7906 18.0265C40.8052 17.9349 40.8125 17.8425 40.8125 17.75L39.6875 17.75C39.6875 17.783 39.6849 17.8162 39.6796 17.8495L40.7906 18.0265ZM40.8125 17.75C40.8125 17.6575 40.8052 17.5651 40.7906 17.4735L39.6796 17.6505C39.6849 17.6838 39.6875 17.717 39.6875 17.75L40.8125 17.75ZM39.5 18.3125H40.25V17.1875H39.5V18.3125Z" fill="#E31C40"/>
</svg>
