<svg width="27" height="31" viewBox="0 0 27 31" fill="none" xmlns="http://www.w3.org/2000/svg">
<path fill-rule="evenodd" clip-rule="evenodd" d="M11.1917 0C11.8086 0 12.3087 0.500107 12.3087 1.11702V2.23404H14.5428V1.11702C14.5428 0.500107 15.0429 0 15.6598 0C16.2767 0 16.7768 0.500107 16.7768 1.11702V2.23404H17.8938C19.1277 2.23404 20.1279 3.23426 20.1279 4.46809C20.1279 5.70191 19.1277 6.70213 17.8938 6.70213H8.95768C7.72385 6.70213 6.72363 5.70191 6.72363 4.46809C6.72363 3.23426 7.72385 2.23404 8.95768 2.23404H10.0747V1.11702C10.0747 0.500107 10.5748 0 11.1917 0Z" fill="#232323"/>
<path d="M7.84082 23.4575H19.011" stroke="#232323" stroke-width="1.11702" stroke-linecap="round" stroke-linejoin="round"/>
<path d="M7.84082 17.8726H19.011" stroke="#232323" stroke-width="1.11702" stroke-linecap="round" stroke-linejoin="round"/>
<path d="M7.84082 12.2871H19.011" stroke="#232323" stroke-width="1.11702" stroke-linecap="round" stroke-linejoin="round"/>
<rect x="1.58548" y="4.91507" width="23.6809" height="24.4255" rx="1.78723" stroke="#232323" stroke-width="0.893617"/>
</svg>
