<svg width="46" height="41" viewBox="0 0 46 41" fill="none" xmlns="http://www.w3.org/2000/svg">
<path fill-rule="evenodd" clip-rule="evenodd" d="M15 0C15.8284 0 16.5 0.671573 16.5 1.5V3H19.5V1.5C19.5 0.671573 20.1716 0 21 0C21.8284 0 22.5 0.671573 22.5 1.5V3H24C25.6569 3 27 4.34315 27 6C27 7.65685 25.6569 9 24 9H12C10.3431 9 9 7.65685 9 6C9 4.34315 10.3431 3 12 3H13.5V1.5C13.5 0.671573 14.1716 0 15 0Z" fill="#232323"/>
<path d="M10.5 31.5H25.5" stroke="#232323" stroke-width="1.5" stroke-linecap="round" stroke-linejoin="round"/>
<path d="M10.5 24H25.5" stroke="#232323" stroke-width="1.5" stroke-linecap="round" stroke-linejoin="round"/>
<path d="M10.5 16.5H25.5" stroke="#232323" stroke-width="1.5" stroke-linecap="round" stroke-linejoin="round"/>
<rect x="2.1" y="6.6" width="31.8" height="32.8" rx="5.4" stroke="#232323" stroke-width="1.2"/>
<path d="M33.25 36C33.25 36.4142 33.5858 36.75 34 36.75C34.4142 36.75 34.75 36.4142 34.75 36H33.25ZM34.75 20C34.75 19.5858 34.4142 19.25 34 19.25C33.5858 19.25 33.25 19.5858 33.25 20L34.75 20ZM28.4673 23.472C28.1757 23.7662 28.1778 24.2411 28.472 24.5327C28.7662 24.8243 29.2411 24.8222 29.5327 24.528L28.4673 23.472ZM30.7473 22.237L30.2146 21.7091L30.7473 22.237ZM37.2527 22.237L36.72 22.765L37.2527 22.237ZM38.4673 24.528C38.7589 24.8222 39.2338 24.8243 39.528 24.5327C39.8222 24.2411 39.8243 23.7662 39.5327 23.472L38.4673 24.528ZM33.6867 20.0199L33.5918 19.2759L33.5918 19.2759L33.6867 20.0199ZM34.3133 20.0199L34.4082 19.2759L34.4082 19.2759L34.3133 20.0199ZM34.75 36L34.75 20L33.25 20L33.25 36H34.75ZM29.5327 24.528L31.28 22.765L30.2146 21.7091L28.4673 23.472L29.5327 24.528ZM36.72 22.765L38.4673 24.528L39.5327 23.472L37.7854 21.7091L36.72 22.765ZM31.28 22.765C31.9891 22.0495 32.4772 21.5587 32.8907 21.2266C33.2924 20.904 33.5504 20.7933 33.7815 20.7639L33.5918 19.2759C32.9737 19.3547 32.4588 19.6496 31.9515 20.0571C31.456 20.455 30.8989 21.0186 30.2146 21.7091L31.28 22.765ZM37.7854 21.7091C37.1011 21.0186 36.544 20.455 36.0485 20.0571C35.5412 19.6496 35.0263 19.3547 34.4082 19.2759L34.2185 20.7639C34.4496 20.7933 34.7076 20.904 35.1093 21.2266C35.5228 21.5587 36.0109 22.0495 36.72 22.765L37.7854 21.7091ZM33.7815 20.7639C33.9266 20.7454 34.0734 20.7454 34.2185 20.7639L34.4082 19.2759C34.1371 19.2414 33.8629 19.2414 33.5918 19.2759L33.7815 20.7639Z" fill="#E31C40"/>
</svg>
